<?xml version="1.0" encoding="UTF-8"?>
<svg version="1.1" xmlns="http://www.w3.org/2000/svg" width="1196" height="1238">
<path d="M0 0 C0.83461915 0.00582568 1.6692383 0.01165137 2.52914894 0.01765358 C3.85478318 0.01509031 3.85478318 0.01509031 5.2071979 0.01247525 C8.18608635 0.00916544 11.16475248 0.02020849 14.14362037 0.03111184 C16.27196708 0.03167563 18.40031418 0.03136002 20.52866066 0.03022683 C26.32177969 0.02965106 32.11481655 0.04144146 37.90791643 0.05537474 C43.95644074 0.06784495 50.00496677 0.06904966 56.05350196 0.07142556 C67.51406062 0.07765126 78.9745813 0.0940768 90.43512321 0.11412454 C103.47965613 0.13644966 116.52419084 0.14746843 129.5687381 0.15751541 C156.40866135 0.1784421 183.24855085 0.21363921 210.08844459 0.25816262 C210.04086761 1.85720311 210.04086761 1.85720311 209.99232948 3.48854744 C209.22427003 29.62083052 208.69557744 55.74999897 208.40710914 81.89208138 C208.26223599 94.53640549 208.04315438 107.17087729 207.64362037 119.80992043 C202.26178086 179.51321383 202.26178086 179.51321383 222.57046974 232.8205024 C229.68008304 240.25983183 237.7498623 246.32108446 246.66949928 251.41575539 C250.74650924 253.82601745 253.49085192 256.63849922 256.475438 260.28768075 C258.88697315 263.23366145 261.577013 265.87099093 264.27985084 268.54722512 C264.85484321 269.12075722 265.42983558 269.69428933 266.02225196 270.28520119 C267.25582835 271.51500819 268.49055711 272.74366022 269.72635353 273.97123635 C271.68876099 275.92073016 273.64789613 277.87346186 275.60626686 279.82701027 C279.76417434 283.97356171 283.92600736 288.11615895 288.08844459 292.25816262 C292.916808 297.06282341 297.74349235 301.86914655 302.56595314 306.67973244 C304.48422974 308.59158741 306.40552202 310.50037467 308.32696998 312.40904152 C317.97950944 322.02146982 317.97950944 322.02146982 321.57477272 326.24449074 C326.3565172 331.85787505 331.68412454 336.9631831 336.91154945 342.15643227 C338.90755983 344.13953295 340.90030165 346.12586836 342.8922776 348.11302102 C347.12151564 352.33090112 351.35467862 356.54482814 355.58844459 360.75816262 C360.49941249 365.64543095 365.4087035 370.53435975 370.31377113 375.42755044 C372.2652871 377.37264307 374.21981844 379.31466928 376.17450416 381.2565757 C381.3481437 386.40907931 386.42894336 391.54707624 391.1644944 397.10935891 C395.53441119 401.98999119 400.2655166 406.54077414 404.91154945 411.15643227 C406.90755983 413.13953295 408.90030165 415.12586836 410.8922776 417.11302102 C415.12151564 421.33090112 419.35467862 425.54482814 423.58844459 429.75816262 C428.49941249 434.64543095 433.4087035 439.53435975 438.31377113 444.42755044 C440.2652871 446.37264307 442.21981844 448.31466928 444.17450416 450.2565757 C449.35250287 455.41342129 454.4384021 460.55571388 459.17792213 466.12278664 C463.48375765 470.93538524 468.1463335 475.42168176 472.72635353 479.97123635 C474.68876099 481.92073016 476.64789613 483.87346186 478.60626686 485.82701027 C482.76417434 489.97356171 486.92600736 494.11615895 491.08844459 498.25816262 C495.916808 503.06282341 500.74349235 507.86914655 505.56595314 512.67973244 C507.48422974 514.59158741 509.40552202 516.50037467 511.32696998 518.40904152 C520.97950944 528.02146982 520.97950944 528.02146982 524.57477272 532.24449074 C529.3565172 537.85787505 534.68412454 542.9631831 539.91154945 548.15643227 C541.90755983 550.13953295 543.90030165 552.12586836 545.8922776 554.11302102 C550.12151564 558.33090112 554.35467862 562.54482814 558.58844459 566.75816262 C563.49941249 571.64543095 568.4087035 576.53435975 573.31377113 581.42755044 C575.2652871 583.37264307 577.21981844 585.31466928 579.17450416 587.2565757 C580.38489974 588.46333464 581.59515283 589.67023652 582.80524147 590.87730324 C583.33947227 591.40636773 583.87370307 591.93543221 584.42412269 592.48052895 C585.42703169 593.48330007 586.4206857 594.49545464 587.40271121 595.51868594 C588.54328669 596.6956244 589.70811937 597.84945237 590.8938579 598.98087656 C595.12173239 603.28743278 596.8890981 606.27740773 596.99201375 612.3368026 C596.97162386 613.21230893 596.95123397 614.08781525 596.93022621 614.98985207 C596.93620718 615.93998806 596.94218815 616.89012406 596.94835037 617.86905205 C596.95983668 621.03747064 596.92145823 624.20326639 596.88312232 627.37144387 C596.88114687 629.64845639 596.88225797 631.92547337 596.88621986 634.2024833 C596.88822661 640.37369229 596.84709877 646.54394706 596.79820216 652.71493447 C596.75441514 659.16777108 596.7503288 665.62063005 596.7420243 672.07359231 C596.72274604 682.90109131 596.67903621 693.72819941 596.61652076 704.5555259 C596.55221289 715.70492226 596.50269091 726.85422357 596.47296607 738.00376809 C596.47112701 738.69166228 596.46928795 739.37955647 596.46739315 740.08829594 C596.45825752 743.53945072 596.44941165 746.99060618 596.44070983 750.44176209 C596.36820822 779.04746493 596.2444514 807.65280009 596.08844459 836.25816262 C595.11539406 836.21077415 594.14234354 836.16338568 593.13980663 836.1145612 C569.16649881 834.96084294 545.19943656 834.1577349 521.20260417 833.69602025 C509.59353835 833.46500331 498.00683147 833.12991238 486.41046607 832.5308677 C427.50426265 827.94228082 427.50426265 827.94228082 376.0595057 851.80557418 C363.15425887 863.57474586 352.31076974 877.2441862 342.17198455 891.40583909 C335.9962427 899.86030319 328.42209642 907.05674362 321.02203834 914.42222512 C319.81048057 915.63186047 318.59915267 916.8417261 317.38803566 918.05180275 C314.79279042 920.64390239 312.19600366 923.23444395 309.59799659 925.82377541 C305.48453583 929.9236414 301.37495665 934.02738361 297.26593482 938.13169777 C287.80224073 947.58338132 278.33352811 957.03003207 268.864766 966.47663796 C260.18192663 975.13926402 251.5001665 983.80296451 242.82245815 992.4707309 C238.74305272 996.54517348 234.66122621 1000.6171698 230.57748878 1004.68727028 C228.03204852 1007.22521757 225.48871199 1009.7652652 222.94592369 1012.30586922 C221.77258142 1013.47734971 220.59838021 1014.64797066 219.42322624 1015.81763375 C213.86479964 1021.35091862 208.3637595 1026.85667107 203.3907975 1032.93580544 C202.96102104 1033.37218331 202.53124458 1033.80856118 202.08844459 1034.25816262 C201.42844459 1034.25816262 200.76844459 1034.25816262 200.08844459 1034.25816262 C199.86109217 1034.81069333 199.63373975 1035.36322403 199.39949787 1035.9324981 C197.70144634 1038.94465501 195.56243854 1041.02633594 193.11159217 1043.46879494 C192.60029469 1043.98109571 192.0889972 1044.49339648 191.56220585 1045.02122152 C189.84820487 1046.73617485 188.1271595 1048.44387862 186.40607154 1050.15171731 C185.17533401 1051.38025343 183.94504404 1052.60923807 182.71516883 1053.83863747 C180.06510119 1056.48577088 177.41190606 1059.12971511 174.75625503 1061.77124703 C170.55270193 1065.95252557 166.35625567 1070.14088805 162.16075599 1074.33024514 C155.51828237 1080.96133214 148.87115652 1087.58773307 142.22199255 1094.21211088 C130.33053648 1106.05930414 118.44454968 1117.9119779 106.56387573 1129.76998365 C102.3970418 1133.9284368 98.2274156 1138.08406353 94.05548429 1142.23740256 C91.45217467 1144.83001746 88.85093719 1147.42470421 86.25019348 1150.01989281 C85.04945271 1151.21718274 83.84784213 1152.41360113 82.64526832 1153.60904992 C75.05631959 1161.15404949 67.739756 1168.67250693 61.32828969 1177.26140869 C41.02017678 1204.46557841 16.44716362 1237.22248704 -19.01164162 1242.91351616 C-44.48942958 1246.24885974 -70.52611743 1244.67704841 -96.07788837 1243.01192653 C-107.86626956 1242.25776869 -119.6580163 1241.90744185 -131.46471059 1241.57952058 C-155.64038064 1240.89957027 -179.77317048 1239.74850656 -203.91155541 1238.25816262 C-203.90196045 1237.22762544 -203.8923655 1236.19708827 -203.88247979 1235.13532269 C-203.65216825 1210.00204394 -203.51484348 1184.8695486 -203.47371209 1159.73522961 C-203.4516917 1147.57999254 -203.4000138 1135.42626222 -203.27727807 1123.27159035 C-203.17031383 1112.67120403 -203.12025754 1102.07229546 -203.13710654 1091.47135693 C-203.14407052 1085.86304668 -203.12351521 1080.25802473 -203.03467858 1074.65034592 C-201.31764912 1049.13474052 -201.31764912 1049.13474052 -210.39081109 1026.43219578 C-213.03606974 1023.88357507 -215.7607952 1021.73612854 -218.82891381 1019.72121918 C-222.46914193 1017.16395746 -225.40740701 1013.89685585 -228.47405541 1010.69566262 C-229.55524225 1009.62835578 -230.63932898 1008.56396753 -231.72796166 1007.50425637 C-234.01204799 1005.22579414 -236.14831973 1002.86456093 -238.25139916 1000.41831887 C-242.24436613 995.79805132 -246.55925108 991.53744171 -250.91155541 987.25816262 C-255.84066259 982.41175858 -260.60127752 977.52818643 -265.10686791 972.28550637 C-268.53165372 968.43818205 -272.24010067 964.86801576 -275.91155541 961.25816262 C-280.84066259 956.41175858 -285.60127752 951.52818643 -290.10686791 946.28550637 C-293.53165372 942.43818205 -297.24010067 938.86801576 -300.91155541 935.25816262 C-305.84066259 930.41175858 -310.60127752 925.52818643 -315.10686791 920.28550637 C-318.53165372 916.43818205 -322.24010067 912.86801576 -325.91155541 909.25816262 C-330.84066259 904.41175858 -335.60127752 899.52818643 -340.10686791 894.28550637 C-343.53165372 890.43818205 -347.24010067 886.86801576 -350.91155541 883.25816262 C-355.85089367 878.40169916 -360.62306681 873.50794485 -365.13811791 868.25425637 C-368.39345662 864.59020773 -371.91607489 861.19111218 -375.41155541 857.75816262 C-379.53480115 853.70867798 -383.61167241 849.67457313 -387.38030541 845.28941262 C-391.32342933 840.70637601 -395.60265939 836.49476173 -399.91155541 832.25816262 C-404.84066259 827.41175858 -409.60127752 822.52818643 -414.10686791 817.28550637 C-417.53165372 813.43818205 -421.24010067 809.86801576 -424.91155541 806.25816262 C-429.84066259 801.41175858 -434.60127752 796.52818643 -439.10686791 791.28550637 C-442.53165372 787.43818205 -446.24010067 783.86801576 -449.91155541 780.25816262 C-454.84066259 775.41175858 -459.60127752 770.52818643 -464.10686791 765.28550637 C-467.53165372 761.43818205 -471.24010067 757.86801576 -474.91155541 754.25816262 C-479.84066259 749.41175858 -484.60127752 744.52818643 -489.10686791 739.28550637 C-492.53165372 735.43818205 -496.24010067 731.86801576 -499.91155541 728.25816262 C-504.85089367 723.40169916 -509.62306681 718.50794485 -514.13811791 713.25425637 C-517.39345662 709.59020773 -520.91607489 706.19111218 -524.41155541 702.75816262 C-528.53480115 698.70867798 -532.61167241 694.67457313 -536.38030541 690.28941262 C-540.32342933 685.70637601 -544.60265939 681.49476173 -548.91155541 677.25816262 C-553.84066259 672.41175858 -558.60127752 667.52818643 -563.10686791 662.28550637 C-566.53165372 658.43818205 -570.24010067 654.86801576 -573.91155541 651.25816262 C-578.78374376 646.46772239 -583.57356123 641.70156058 -587.91257203 636.41610444 C-589.87147301 634.17069001 -589.87147301 634.17069001 -592.40704453 632.39479172 C-596.83230038 628.88117695 -599.96348197 625.67778119 -600.82005227 619.98069298 C-601.27400423 614.57434017 -601.14988322 609.17255868 -601.04680932 603.75376809 C-601.04398567 601.67350316 -601.0455776 599.59322828 -601.05123436 597.51296914 C-601.05409529 591.88682641 -600.99544347 586.26283003 -600.92549479 580.63718474 C-600.86284002 574.75030511 -600.85709641 568.86337233 -600.84524071 562.97621071 C-600.81420068 551.83774914 -600.73219584 540.70027296 -600.63174582 529.56224465 C-600.51984233 516.87799219 -600.46495694 504.19369184 -600.41479146 491.50906837 C-600.31035919 465.42488751 -600.13454813 439.34158036 -599.91155541 413.25816262 C-598.34199231 413.26702429 -598.34199231 413.26702429 -596.74072087 413.27606499 C-571.25892409 413.41717939 -545.77764456 413.48907973 -520.29544652 413.48875725 C-507.97223562 413.49019723 -495.64982985 413.51397749 -483.32683861 413.59068215 C-472.5837617 413.65749556 -461.84155298 413.68205419 -451.09828466 413.65625751 C-445.41142284 413.64406778 -439.72635282 413.65277482 -434.03975022 413.71211922 C-428.68155679 413.7673679 -423.32630431 413.7659036 -417.96803582 413.72185624 C-416.00690379 413.71556345 -414.04557916 413.72959195 -412.08477509 413.76600373 C-401.01032149 414.25277237 -401.01032149 414.25277237 -391.3801471 409.63889229 C-388.53911401 406.76482904 -386.24466218 403.55405698 -383.91155541 400.25816262 C-382.52731251 398.80979786 -381.1169265 397.38503729 -379.66155541 396.00816262 C-377.16538114 393.55241222 -374.81446436 391.04248888 -372.53655541 388.38316262 C-369.79534092 385.19133753 -366.90469653 382.21513285 -363.91155541 379.25816262 C-360.95972516 376.34189659 -358.10766682 373.41210427 -355.41155541 370.25816262 C-351.92703434 366.18193043 -348.1307356 362.46265389 -344.31780541 358.69566262 C-342.25706196 356.60815627 -340.31639915 354.48647039 -338.41155541 352.25816262 C-334.92703434 348.18193043 -331.1307356 344.46265389 -327.31780541 340.69566262 C-325.25706196 338.60815627 -323.31639915 336.48647039 -321.41155541 334.25816262 C-317.92703434 330.18193043 -314.1307356 326.46265389 -310.31780541 322.69566262 C-308.25706196 320.60815627 -306.31639915 318.48647039 -304.41155541 316.25816262 C-300.92703434 312.18193043 -297.1307356 308.46265389 -293.31780541 304.69566262 C-291.25706196 302.60815627 -289.31639915 300.48647039 -287.41155541 298.25816262 C-283.92703434 294.18193043 -280.1307356 290.46265389 -276.31780541 286.69566262 C-274.25706196 284.60815627 -272.31639915 282.48647039 -270.41155541 280.25816262 C-266.92822999 276.18332911 -263.13336833 272.4652327 -259.32171166 268.69956887 C-256.64301009 265.98613535 -254.16547423 263.15039239 -251.68889916 260.25425637 C-248.96056256 257.19012449 -246.01487633 254.3533443 -243.09514916 251.47300637 C-241.1318087 249.48156801 -239.29075872 247.44513684 -237.47405541 245.32066262 C-234.75536293 242.14780342 -231.88403866 239.1947788 -228.91155541 236.25816262 C-225.95972516 233.34189659 -223.10766682 230.41210427 -220.41155541 227.25816262 C-216.92703434 223.18193043 -213.1307356 219.46265389 -209.31780541 215.69566262 C-207.25706196 213.60815627 -205.31639915 211.48647039 -203.41155541 209.25816262 C-199.92703434 205.18193043 -196.1307356 201.46265389 -192.31780541 197.69566262 C-190.25706196 195.60815627 -188.31639915 193.48647039 -186.41155541 191.25816262 C-182.92703434 187.18193043 -179.1307356 183.46265389 -175.31780541 179.69566262 C-173.25706196 177.60815627 -171.31639915 175.48647039 -169.41155541 173.25816262 C-165.92703434 169.18193043 -162.1307356 165.46265389 -158.31780541 161.69566262 C-156.25706196 159.60815627 -154.31639915 157.48647039 -152.41155541 155.25816262 C-148.92703434 151.18193043 -145.1307356 147.46265389 -141.31780541 143.69566262 C-139.25706196 141.60815627 -137.31639915 139.48647039 -135.41155541 137.25816262 C-132.715444 134.10422097 -129.86338566 131.17442865 -126.91155541 128.25816262 C-123.9803735 125.36224304 -121.14752367 122.4557369 -118.47405541 119.32066262 C-115.60983186 115.96891166 -112.54821448 112.85259845 -109.41155541 109.75816262 C-106.29576418 106.68425734 -103.25278303 103.59114117 -100.41155541 100.25816262 C-97.12854761 96.40694193 -93.55751029 92.87527402 -89.95843041 89.32456887 C-87.33131982 86.71911029 -84.81162457 84.07362837 -82.41155541 81.25816262 C-79.12854761 77.40694193 -75.55751029 73.87527402 -71.95843041 70.32456887 C-69.33131982 67.71911029 -66.81162457 65.07362837 -64.41155541 62.25816262 C-61.12922151 58.40773247 -57.55900692 54.87670682 -53.96062768 51.32676613 C-50.71154934 48.10449814 -47.68711678 44.76475616 -44.72014916 41.28550637 C-41.73505425 37.93936326 -38.50272773 34.84222309 -35.31389916 31.69175637 C-33.27441168 29.62573897 -31.35647741 27.52810712 -29.47405541 25.32066262 C-26.60983361 21.9689137 -23.5482484 18.85256787 -20.41155541 15.75816262 C-16.51757594 11.90703299 -12.79864227 7.98845304 -9.25139916 3.81675637 C-6.2078319 0.27628016 -4.67607518 0.02461752 0 0 Z M-13.34467614 93.57775795 C-14.26445496 94.505392 -14.26445496 94.505392 -15.20281518 95.45176613 C-15.89766518 96.14991936 -16.59251519 96.84807259 -17.30842125 97.56738198 C-18.06561959 98.33287865 -18.82281792 99.09837533 -19.60296166 99.88706887 C-20.38163094 100.66952477 -21.16030022 101.45198067 -21.96256554 102.25814736 C-25.30616669 105.6181206 -28.64399084 108.9838108 -31.98211205 112.34922707 C-34.4161142 114.80145246 -36.85321385 117.25056994 -39.29046166 119.69956887 C-40.03349038 120.45089592 -40.77651909 121.20222298 -41.54206383 121.97631752 C-42.61743653 123.05664505 -42.61743653 123.05664505 -43.71453393 124.15879738 C-44.64266648 125.09478516 -44.64266648 125.09478516 -45.58954918 126.04968178 C-47.54334525 127.90795465 -49.5339881 129.66711997 -51.57702172 131.42462075 C-56.41844066 135.63782852 -60.93411552 140.1480876 -65.46111596 144.69419777 C-66.38084191 145.6137777 -67.30056786 146.53335763 -68.2481643 147.48080361 C-70.74812347 149.98047815 -73.24500606 152.48320484 -75.74131286 154.98652613 C-78.36499906 157.61651083 -80.99156275 160.24361876 -83.61780846 162.87104714 C-88.58599937 167.84233573 -93.55163901 172.81616447 -98.51634496 177.79093313 C-104.15225242 183.43801757 -109.79099661 189.0822658 -115.42998743 194.72627103 C-125.0720275 204.37698078 -134.7119518 214.02979912 -144.34949791 223.68499672 C-145.14415459 224.48109856 -145.93881127 225.2772004 -146.75754845 226.09742653 C-147.44311161 226.78428851 -148.12867476 227.47115048 -148.83501256 228.17882645 C-149.5202717 228.86500739 -150.20553084 229.55118832 -150.91155541 230.25816262 C-152.06412268 231.42621799 -152.06412268 231.42621799 -153.23997414 232.61787045 C-156.3653834 235.70667545 -159.58301148 238.68273188 -162.81086266 241.66357338 C-170.55842988 248.86061573 -178.06164835 256.27953625 -185.52263939 263.77159035 C-186.91064318 265.16152005 -188.29887979 266.55121727 -189.6873275 267.94070351 C-192.64327109 270.89977401 -195.59766308 273.8603813 -198.55080521 276.82224762 C-203.22667765 281.51179275 -207.90649692 286.1973864 -212.58686364 290.88244545 C-222.51058676 300.81719846 -232.43003681 310.75621288 -242.34905541 320.69566262 C-253.08597519 331.45465904 -263.82366032 342.21288546 -274.56622285 352.96624821 C-279.21352705 357.61851475 -283.85838753 362.27320294 -288.5013485 366.92980385 C-291.39001506 369.82595307 -294.28077298 372.72000795 -297.1720897 375.6135112 C-298.50644304 376.9497288 -299.83993557 378.28680668 -301.17247689 379.62483132 C-315.37614874 393.88508741 -315.37614874 393.88508741 -322.99243176 399.90209401 C-333.1674241 407.98376575 -333.1674241 407.98376575 -338.31734765 419.5232383 C-338.97399927 425.6460701 -338.74011131 431.7338278 -338.50921166 437.87535012 C-338.48207355 440.18706618 -338.46214781 442.49887653 -338.44889367 444.81071389 C-338.3940763 450.98112508 -338.24173493 457.14550297 -338.07009423 463.31362069 C-337.90930769 469.70823214 -337.84036902 476.10379195 -337.76311791 482.49986184 C-337.62800125 492.81573704 -337.44273693 503.12943901 -337.21673119 513.44370949 C-336.92203561 526.96995458 -336.74672383 540.49498432 -336.62639916 554.02378762 C-336.59092079 557.8716105 -336.55491181 561.71942829 -336.51873314 565.56724465 C-336.51027776 566.47714465 -336.50182238 567.38704464 -336.49311078 568.32451737 C-336.35969254 582.3032789 -336.13105854 596.28051671 -335.91155541 610.25816262 C-324.69155541 610.25816262 -313.47155541 610.25816262 -301.91155541 610.25816262 C-301.91155541 545.90816262 -301.91155541 481.55816262 -301.91155541 415.25816262 C-301.25155541 415.25816262 -300.59155541 415.25816262 -299.91155541 415.25816262 C-298.49627558 413.85846535 -298.49627558 413.85846535 -297.00530541 411.97691262 C-293.96543945 408.4020806 -290.77313716 405.02978118 -287.44280541 401.72691262 C-286.95505639 401.24246682 -286.46730736 400.75802102 -285.96477807 400.25889504 C-283.940205 398.25241614 -281.9108705 396.25078405 -279.88177025 394.24888527 C-273.020702 387.52460019 -273.020702 387.52460019 -266.56780541 380.41441262 C-260.5111389 373.32527715 -253.64175684 366.93713443 -247.01800072 360.38511574 C-238.15753676 351.63438876 -238.15753676 351.63438876 -229.82171166 342.39097512 C-224.37570155 336.31015401 -218.39347602 330.69523456 -212.59075463 324.95786965 C-204.77339206 317.32304977 -204.77339206 317.32304977 -197.41155541 309.25816262 C-191.59484744 302.41540181 -184.9718401 296.26708449 -178.59075463 289.95786965 C-170.77339206 282.32304977 -170.77339206 282.32304977 -163.41155541 274.25816262 C-157.59484744 267.41540181 -150.9718401 261.26708449 -144.59075463 254.95786965 C-135.92856407 246.3919029 -135.92856407 246.3919029 -127.77678978 237.34605324 C-122.7129087 231.67768792 -117.14255947 226.44349423 -111.73626244 221.10337746 C-104.3608936 213.88223012 -104.3608936 213.88223012 -97.41155541 206.25816262 C-91.93438499 199.83134849 -85.73975399 194.0333783 -79.73626244 188.10337746 C-74.23607792 182.6645033 -68.8017293 177.24155042 -63.78069603 171.34995949 C-58.8937511 165.88087065 -53.52714609 160.82748432 -48.30901635 155.67613137 C-41.13955154 148.64992678 -41.13955154 148.64992678 -34.41155541 141.20738137 C-31.55527024 137.84760661 -28.40782223 134.87760627 -25.16155541 131.90269387 C-23.60628151 130.4513374 -22.05371039 128.99714335 -20.50188744 127.54209816 C-19.43834442 126.5580678 -18.36359561 125.58601716 -17.27825463 124.62608254 C-10.54235497 118.83318336 -10.54235497 118.83318336 -7.41326439 110.80967629 C-7.64732602 107.49797322 -8.13564055 104.4825496 -8.91155541 101.25816262 C-9.09339379 100.33197121 -9.27523217 99.40577981 -9.4625808 98.45152199 C-9.88659547 96.37415368 -10.38914075 94.31299362 -10.91155541 92.25816262 C-12.11363464 92.14526778 -12.11363464 92.14526778 -13.34467614 93.57775795 Z M-12.02802575 192.26110756 C-12.97297704 193.20620883 -13.9151138 194.15412856 -14.85515893 195.10410988 C-15.36914742 195.61955864 -15.88313591 196.13500741 -16.41269982 196.66607583 C-17.53401866 197.79121287 -18.65418048 198.91750389 -19.77334321 200.04478562 C-21.55014097 201.83431755 -23.33001771 203.62073337 -25.1107589 205.40634072 C-29.5401107 209.84908869 -33.96413156 214.29713311 -38.38817894 218.74516213 C-42.11434463 222.49116119 -45.84261587 226.23504088 -49.57364762 229.97619355 C-51.31707409 231.72604896 -53.05742844 233.47891977 -54.79767907 235.23193276 C-63.61147917 244.08591021 -63.61147917 244.08591021 -67.76287377 247.60948098 C-73.74758119 252.72180661 -79.19103802 258.42888972 -84.73580468 264.00724709 C-86.88693878 266.17127303 -89.0412933 268.33204739 -91.19646752 270.49204934 C-95.77099146 275.07793984 -100.34156739 279.66775248 -104.91155541 284.25816262 C-110.21186073 289.58215365 -115.51381799 294.90447766 -120.82003319 300.22257912 C-122.93131465 302.34029167 -125.03953549 304.46101809 -127.14763939 306.58189309 C-132.56967367 312.02442969 -137.95486711 317.41169512 -143.81463158 322.38609231 C-148.61798891 326.67438477 -153.08822989 331.32929496 -157.62462914 335.89607155 C-159.57412296 337.85847902 -161.52685466 339.81761415 -163.48040307 341.77598488 C-167.6269545 345.93389236 -171.76955174 350.09572539 -175.91155541 354.25816262 C-180.7162162 359.08652603 -185.52253934 363.91321038 -190.33312523 368.73567116 C-192.2449802 370.65394776 -194.15376747 372.57524005 -196.06243432 374.49668801 C-210.96654774 389.47106152 -210.96654774 389.47106152 -216.75136864 392.98142922 C-225.88181254 398.52897361 -233.91002261 405.06506993 -237.91155541 415.25816262 C-242.31102621 433.84265209 -240.07378756 454.75458518 -239.25136137 473.72088587 C-238.9339129 481.13590078 -238.74840098 488.55205589 -238.57768857 495.97167981 C-238.30798462 507.61129325 -237.9634723 519.24660188 -237.55088603 530.88197911 C-236.91657761 548.79129773 -236.55188585 566.69934652 -236.28264916 584.61753762 C-236.26248301 585.93491166 -236.24231686 587.2522857 -236.22153962 588.60958016 C-236.11181798 595.82570918 -236.0104337 603.04186325 -235.91155541 610.25816262 C-224.69155541 610.25816262 -213.47155541 610.25816262 -201.91155541 610.25816262 C-201.93677773 607.85293816 -201.96200005 605.4477137 -201.98798668 602.96960366 C-202.21787549 580.26797807 -202.35277576 557.56718928 -202.4012109 534.86444104 C-202.42837299 523.19334023 -202.48703542 511.52402265 -202.62127221 499.8536216 C-202.73826739 489.67510316 -202.79471582 479.49830407 -202.78009278 469.31909329 C-202.77442854 463.93410341 -202.79796518 458.552992 -202.8941623 453.16877854 C-203.52548195 416.00051713 -203.52548195 416.00051713 -195.04022419 406.57166111 C-192.20288628 404.01125615 -189.2594837 401.84798148 -186.04390061 399.78883851 C-182.39173294 397.16717809 -179.74072362 393.71458913 -176.91155541 390.25816262 C-175.54571756 388.83288883 -174.16406836 387.4222739 -172.75530541 386.03941262 C-172.04245385 385.33429543 -171.32960228 384.62917824 -170.59514916 383.90269387 C-169.13941999 382.47300637 -167.68369083 381.04331887 -166.22796166 379.61363137 C-162.8323698 376.25488138 -159.52737772 372.87963838 -156.41155541 369.25816262 C-151.96720289 364.09255517 -147.08648453 359.38523969 -142.22796166 354.61363137 C-138.84273831 351.26513739 -135.54710283 347.90155593 -132.44280541 344.28941262 C-127.79209342 338.88395651 -122.66466045 333.96507462 -117.58343041 328.96910012 C-113.43504271 324.86304291 -109.48855564 320.68006093 -105.68499291 316.25425637 C-101.75441476 311.83019154 -97.44818441 307.75835818 -93.22796166 303.61363137 C-89.8323698 300.25488138 -86.52737772 296.87963838 -83.41155541 293.25816262 C-78.96720289 288.09255517 -74.08648453 283.38523969 -69.22796166 278.61363137 C-65.84273831 275.26513739 -62.54710283 271.90155593 -59.44280541 268.28941262 C-54.79209342 262.88395651 -49.66466045 257.96507462 -44.58343041 252.96910012 C-40.43504271 248.86304291 -36.48855564 244.68006093 -32.68499291 240.25425637 C-28.75441476 235.83019154 -24.44818441 231.75835818 -20.22796166 227.61363137 C-16.71556323 224.13934214 -13.25004182 220.63082583 -9.91546166 216.98472512 C-9.34899926 216.36678078 -8.78253685 215.74883645 -8.19890893 215.11216652 C-5.77876856 211.6267605 -6.33534496 208.29163578 -6.91155541 204.25816262 C-7.06753197 203.04257668 -7.22350853 201.82699074 -7.38421166 200.57456887 C-7.85276826 197.12807476 -8.36433909 193.69292222 -8.91155541 190.25816262 C-10.27616449 190.1436028 -10.27616449 190.1436028 -12.02802575 192.26110756 Z M149.12677467 274.36704934 C147.91500651 274.3731 146.70323835 274.37915066 145.45474994 274.38538468 C142.95218458 274.39755633 140.44961822 274.40952219 137.94705093 274.42129052 C131.49016964 274.45588773 125.03346711 274.51054366 118.57672584 274.56480324 C115.9408212 274.58673189 113.30491625 274.60862302 110.669011 274.63047707 C109.35799415 274.64135354 108.04697731 274.65223 106.69623268 274.66343606 C102.70604953 274.69572245 98.71585615 274.72595885 94.72565162 274.75547707 C66.16527974 274.96716255 37.63340481 275.25850097 9.08844459 276.25816262 C9.08844459 287.47816262 9.08844459 298.69816262 9.08844459 310.25816262 C11.4885984 310.25514641 13.88875221 310.25213021 16.36163795 310.2490226 C38.96324849 310.22394722 61.56459999 310.2374887 84.16617286 310.28662884 C95.7863411 310.31096416 107.40624859 310.32226783 119.02643287 310.30284035 C129.15521827 310.28593942 139.28363896 310.29354323 149.41237628 310.3305102 C154.77505435 310.34922832 160.13711563 310.35571768 165.49979103 310.3328563 C170.54963809 310.31171584 175.5983562 310.323393 180.64810455 310.36000741 C182.49917479 310.36768734 184.35033937 310.36347985 186.20134628 310.34634888 C201.92969295 310.21196047 201.92969295 310.21196047 207.00861061 314.57577431 C208.0734271 315.77024553 209.10705261 316.99425382 210.08844459 318.25816262 C210.81410621 318.94636086 211.53976783 319.6345591 212.2874192 320.34361184 C212.84953102 320.91096047 213.41164283 321.4783091 213.99078834 322.06285012 C214.64506813 322.72043313 215.29934791 323.37801613 215.97345436 324.0555259 C216.65077613 324.74114602 217.32809791 325.42676613 218.02594459 326.13316262 C219.11250343 327.22540139 219.11250343 327.22540139 220.22101295 328.33970559 C223.28386883 331.41873213 226.3406677 334.50374585 229.3980149 337.58824074 C231.64688576 339.8553172 233.89884697 342.11929227 236.15094459 344.38316262 C236.82826637 345.06878273 237.50558815 345.75440285 238.20343482 346.46079934 C241.37529341 349.64867149 244.58245077 352.72987654 247.99274147 355.66245949 C252.74777884 359.76587635 257.14010963 364.20318895 261.55719459 368.66441262 C262.43693946 369.54794411 263.31668434 370.43147561 264.22308815 371.34178078 C267.48501404 374.61788582 270.74237023 377.89851242 273.9993943 381.1794883 C277.20331719 384.40646799 280.41113575 387.62954341 283.61969459 390.85191262 C284.45013282 391.69064919 285.28057106 392.52938576 286.13617408 393.39353859 C289.695259 396.9674222 293.26351992 400.46856115 297.08844459 403.75816262 C301.81615243 407.82419685 306.17192554 412.23532279 310.55719459 416.66441262 C311.43693946 417.54794411 312.31668434 418.43147561 313.22308815 419.34178078 C316.48501404 422.61788582 319.74237023 425.89851242 322.9993943 429.1794883 C326.20331719 432.40646799 329.41113575 435.62954341 332.61969459 438.85191262 C333.45013282 439.69064919 334.28057106 440.52938576 335.13617408 441.39353859 C338.695259 444.9674222 342.26351992 448.46856115 346.08844459 451.75816262 C350.81615243 455.82419685 355.17192554 460.23532279 359.55719459 464.66441262 C360.43693946 465.54794411 361.31668434 466.43147561 362.22308815 467.34178078 C365.48501404 470.61788582 368.74237023 473.89851242 371.9993943 477.1794883 C375.20331719 480.40646799 378.41113575 483.62954341 381.61969459 486.85191262 C382.45013282 487.69064919 383.28057106 488.52938576 384.13617408 489.39353859 C388.31772347 493.59247488 392.57601896 497.59932475 397.06781471 501.46238625 C400.99230982 504.95016778 404.64623665 508.71556136 408.33844459 512.44566262 C409.62476783 513.73766579 409.62476783 513.73766579 410.9370774 515.05577004 C414.57339398 518.70830245 418.2036883 522.36679897 421.83453834 526.02476418 C424.50042056 528.70881418 427.16936269 531.38979503 429.83844459 534.07066262 C430.64700904 534.88752541 431.4555735 535.7043882 432.2886399 536.54600441 C435.79246439 540.06477447 439.30904064 543.50586294 443.07477272 546.74449074 C447.80637388 550.81588211 452.16737875 555.23073056 456.55719459 559.66441262 C457.43693946 560.54794411 458.31668434 561.43147561 459.22308815 562.34178078 C462.48501404 565.61788582 465.74237023 568.89851242 468.9993943 572.1794883 C472.20331719 575.40646799 475.41113575 578.62954341 478.61969459 581.85191262 C479.45013282 582.69064919 480.28057106 583.52938576 481.13617408 584.39353859 C485.40723365 588.68235725 489.73160828 592.79390241 494.39056861 596.66087258 C496.23240226 598.39359191 497.54722365 600.23235017 498.96344459 602.32066262 C500.90832794 604.36119597 502.25401706 605.20107986 505.08697975 605.39488137 C512.02137521 605.17133352 518.88719779 604.45715403 525.08844459 601.25816262 C524.15336318 600.32641213 524.15336318 600.32641213 523.19939125 599.3758384 C517.29785375 593.49441653 511.39878371 587.61053305 505.50240695 581.72393715 C502.47163047 578.69835828 499.43993977 575.67370793 496.40607154 572.65122902 C493.47310555 569.7292036 490.54265654 566.80467487 487.61386764 563.87846291 C486.50131803 562.76774755 485.38789516 561.65790612 484.27354705 560.54899514 C474.45273769 550.77416119 474.45273769 550.77416119 470.62775123 546.29527199 C466.16421531 541.07984215 461.24479491 536.30387119 456.37651527 531.4710685 C454.58212124 529.68961013 452.7910205 527.90489624 451.00067604 526.11936867 C447.19942184 522.32945996 443.39423871 518.54351165 439.58844459 514.75816262 C435.17310274 510.36654041 430.75945211 505.97324536 426.35002601 501.57568276 C424.59794663 499.83001552 422.84284982 498.0874231 421.0875901 496.34495461 C416.2066744 491.48622275 411.43971396 486.59897618 406.96454322 481.35911477 C403.02262911 476.94475575 398.76090577 472.82426176 394.56171119 468.65626442 C392.80091959 466.9084134 391.04342595 465.1573029 389.28668678 463.40537941 C385.55676334 459.68679911 381.82291022 455.97218058 378.08844459 452.25816262 C373.75570686 447.94914832 369.42466306 443.63845885 365.097844 439.32350075 C363.37900415 437.61107092 361.65714647 435.9017175 359.93512428 434.19248879 C351.27591976 425.57339555 351.27591976 425.57339555 347.60211647 421.27183449 C343.14997246 416.06186444 338.23655112 411.29568748 333.37651527 406.4710685 C331.58212124 404.68961013 329.7910205 402.90489624 328.00067604 401.11936867 C324.19942184 397.32945996 320.39423871 393.54351165 316.58844459 389.75816262 C312.17310274 385.36654041 307.75945211 380.97324536 303.35002601 376.57568276 C301.59794663 374.83001552 299.84284982 373.0874231 298.0875901 371.34495461 C293.21106284 366.49059196 288.44914672 361.60761049 283.97797096 356.3725425 C279.97217435 351.89005636 275.64168369 347.70515506 271.37651527 343.4710685 C269.58212124 341.68961013 267.7910205 339.90489624 266.00067604 338.11936867 C262.19942184 334.32945996 258.39423871 330.54351165 254.58844459 326.75816262 C250.17310274 322.36654041 245.75945211 317.97324536 241.35002601 313.57568276 C239.59794663 311.83001552 237.84284982 310.0874231 236.0875901 308.34495461 C221.58375162 293.91001994 221.58375162 293.91001994 217.09235084 286.75816262 C212.53216292 280.43554704 207.38760597 275.02641587 199.45311439 273.60853493 C195.03067895 273.34144254 190.62385905 273.54828286 186.20172584 273.73081887 C184.46572639 273.77088817 182.7296185 273.80645968 180.99344337 273.83801186 C177.14218829 273.91176409 173.29208312 274.00583087 169.44156349 274.11100686 C162.67020552 274.28298851 155.90005818 274.33348834 149.12677467 274.36704934 Z M163.28131568 374.36314309 C162.22342905 374.36944048 161.16554241 374.37573788 160.0755986 374.38222611 C157.86032679 374.39510155 155.64505384 374.40778308 153.42977989 374.42028344 C147.57176121 374.45702763 141.71390827 374.51128468 135.85602272 374.56480324 C133.42837005 374.58673081 131.00071705 374.60862191 128.57306373 374.63047707 C127.3663401 374.64135354 126.15961647 374.65223 124.91632545 374.66343606 C121.31884079 374.69528288 117.72134701 374.72566216 114.12384498 374.75547707 C79.10714201 375.04605225 44.09944691 375.56297522 9.08844459 376.25816262 C9.08844459 387.80816262 9.08844459 399.35816262 9.08844459 411.25816262 C12.67535163 411.21819161 12.67535163 411.21819161 16.33472145 411.17741311 C38.87583542 410.93198912 61.41677294 410.75351879 83.95892417 410.63641655 C95.5480453 410.5746096 107.13618439 410.49038782 118.72467506 410.35288918 C128.82846431 410.2330641 138.93154223 410.15581318 149.03602231 410.12910068 C154.38386794 410.11349141 159.72967911 410.07696621 165.0768708 409.98940194 C170.11722407 409.90753632 175.15471882 409.88290235 180.19567382 409.90087044 C182.03878248 409.89758697 183.88199328 409.87395121 185.72452438 409.82769692 C201.06207327 409.46177122 201.06207327 409.46177122 207.47625649 415.4785136 C209.82587986 417.96594667 211.94597626 420.58984699 214.08844459 423.25816262 C215.36832455 424.44032063 216.67278615 425.59814154 218.02594459 426.69566262 C224.6778606 432.37178103 230.67412269 438.7914378 236.81598365 445.00620949 C244.24403327 452.60257577 244.24403327 452.60257577 252.08844459 459.75816262 C258.72428932 465.40628203 264.69560638 471.81317653 270.81598365 478.00620949 C276.39697747 483.64748693 281.9365275 489.22889724 287.98297584 494.37535012 C293.65532343 499.44783906 298.89699227 505.02096199 304.24322975 510.43345559 C311.44777388 517.79436487 311.44777388 517.79436487 319.05719459 524.72691262 C325.70106021 530.3890624 331.6848589 536.80230146 337.81598365 543.00620949 C345.24403327 550.60257577 345.24403327 550.60257577 353.08844459 557.75816262 C359.72428932 563.40628203 365.69560638 569.81317653 371.81598365 576.00620949 C373.50882721 577.71733845 375.20396264 579.42613807 376.90094459 581.13316262 C377.44433479 581.68013802 377.98772499 582.22711342 378.54758155 582.79066384 C382.03437521 586.27505442 385.65454883 589.5233997 389.41949928 592.70640481 C391.15397958 594.31909597 392.52117927 595.99752878 393.94000709 597.89097512 C396.87483172 601.69068966 399.65870341 605.19200406 404.08844459 607.25816262 C411.50041013 608.04414007 418.95608207 606.15289148 426.08844459 604.25816262 C413.23229119 589.08443235 399.08446243 575.16096837 384.96759498 561.17417824 C384.30514274 560.51599099 383.6426905 559.85780373 382.96016395 559.17967141 C381.71723494 557.94491021 380.47223653 556.7122267 379.2246598 555.48216164 C376.24461532 552.51908514 373.39278292 549.49907743 370.64703834 546.31675637 C367.02076197 542.12247257 363.15634121 538.21583675 359.21344459 534.32066262 C358.48528541 533.59629006 357.75712623 532.8719175 357.00690162 532.12559426 C354.70318813 529.83397958 352.39624985 527.54565609 350.08844459 525.25816262 C347.0437968 522.24031181 344.00261492 519.21902845 340.96344459 516.19566262 C340.27782447 515.51834084 339.59220436 514.84101906 338.88580787 514.14317238 C335.03474137 510.31145086 331.40571721 506.36430212 327.85748756 502.2520591 C324.79035233 498.79507685 321.49999237 495.56743197 318.21344459 492.32066262 C317.12120582 491.23410378 317.12120582 491.23410378 316.00690162 490.12559426 C313.70318813 487.83397958 311.39624985 485.54565609 309.08844459 483.25816262 C306.0437968 480.24031181 303.00261492 477.21902845 299.96344459 474.19566262 C299.27782447 473.51834084 298.59220436 472.84101906 297.88580787 472.14317238 C294.6708854 468.94439936 291.56456366 465.70681413 288.60211647 462.27183449 C284.92659701 458.01215055 280.99487699 454.05517607 276.99469459 450.10191262 C276.24433937 449.35534401 275.49398414 448.60877541 274.72089088 447.83958352 C272.34584539 445.47664237 269.96757642 443.11698892 267.58844459 440.75816262 C264.45005242 437.64655616 261.31511714 434.53152507 258.18219459 431.41441262 C257.47470069 430.71521706 256.7672068 430.0160215 256.03827369 429.2956382 C252.13443842 425.41083357 248.44816151 421.41635384 244.85202491 417.24659646 C241.776268 413.77868573 238.47461712 410.54212006 235.17828834 407.28550637 C234.08249206 406.19539002 234.08249206 406.19539002 232.96455848 405.08325112 C230.65412567 402.78491797 228.34046538 400.48987847 226.02594459 398.19566262 C222.9696009 395.16607029 219.91669229 392.13307557 216.86578834 389.09800637 C216.17500694 388.4155233 215.48422554 387.73304024 214.77251136 387.02987587 C214.11485282 386.37552056 213.45719429 385.72116524 212.7796067 385.04698098 C211.82618637 384.10646134 211.82618637 384.10646134 210.85350502 383.1469413 C209.08844459 381.25816262 209.08844459 381.25816262 207.65895545 379.23083413 C205.66959812 376.41970808 204.29076981 374.5578793 200.8658036 373.70410073 C197.90715542 373.5389731 195.03627973 373.63702389 192.07672584 373.79331887 C190.22321512 373.84135523 188.3696956 373.88916845 186.51608074 373.93300259 C184.35608288 373.98790507 182.19681345 374.05771504 180.03723609 374.12712014 C174.45245903 374.29101601 168.86818364 374.33004278 163.28131568 374.36314309 Z M9.08844459 422.25816262 C8.22155006 423.13029397 7.35465553 424.00242531 6.46149147 424.90098488 C3.21377667 428.16693663 -0.03735868 431.42946561 -3.2894851 434.69102395 C-4.69079674 436.09733336 -6.09120577 437.50454284 -7.49065697 438.91270363 C-9.51394579 440.94825918 -11.54056669 442.98044793 -13.56780541 445.01206887 C-14.18272851 445.63215325 -14.7976516 446.25223763 -15.43120873 446.89111245 C-18.4225599 449.88284017 -21.45553084 452.76161363 -24.66936791 455.51377785 C-29.54102519 459.7261382 -34.0552219 464.28904921 -38.58747399 468.8589164 C-40.16728674 470.45169752 -41.75038127 472.04115419 -43.3342849 473.62986672 C-46.69622402 477.00313574 -50.0541936 480.38033863 -53.41155541 483.75816262 C-57.3075289 487.67788097 -61.20519079 491.59589004 -65.10712731 495.50967324 C-66.65337096 497.062315 -68.19652921 498.61797665 -69.73955834 500.17381203 C-73.68887916 504.14346556 -77.6274984 508.08792633 -81.88421166 511.73081887 C-86.83037042 515.9683625 -91.37406255 520.60904882 -95.95786583 525.22930825 C-97.60489424 526.88929321 -99.25519493 528.54596497 -100.90630639 530.2018882 C-104.41090179 533.71781913 -107.91153096 537.23768215 -111.41155541 540.75816262 C-115.47274549 544.84308846 -119.53561835 548.92631154 -123.6027633 553.00530922 C-125.21548124 554.62443033 -126.82511759 556.24657045 -128.4346267 557.86888039 C-133.13566378 562.59315055 -137.88301822 567.18822471 -142.95000756 571.52369606 C-146.95427352 575.06440265 -150.67633688 578.90196922 -154.44280541 582.69175637 C-155.31932763 583.56969353 -156.19584984 584.4476307 -157.09893334 585.35217202 C-159.87218337 588.13097758 -162.64191823 590.91325658 -165.41155541 593.69566262 C-167.30166346 595.59136127 -169.19257059 597.48626045 -171.08343041 599.38120949 C-175.69546545 604.00421451 -180.30462682 608.63006919 -184.91155541 613.25816262 C-181.71757705 617.01414669 -178.52109731 620.75205034 -175.14202416 624.34410012 C-174.48516625 625.04285256 -173.82830834 625.741605 -173.15154564 626.46153176 C-172.13556298 627.53648903 -172.13556298 627.53648903 -171.09905541 628.63316262 C-170.39272973 629.3826719 -169.68640404 630.13218117 -168.95867455 630.90440285 C-164.64094697 635.47211719 -160.25308429 639.95285263 -155.77483666 644.36363137 C-153.94322983 646.22595697 -152.23452199 648.14888785 -150.53655541 650.13316262 C-147.64940741 653.50374005 -144.56908543 656.64320126 -141.41155541 659.75816262 C-137.69309065 663.42663121 -134.17487351 667.18965484 -130.78655541 671.16441262 C-127.9755523 674.30336609 -124.95887744 677.23166942 -121.96062768 680.1895591 C-118.71154934 683.4118271 -115.68711678 686.75156907 -112.72014916 690.23081887 C-109.73749651 693.57422432 -106.50798849 696.66892632 -103.32171166 699.81675637 C-100.64301009 702.53018989 -98.16547423 705.36593284 -95.68889916 708.26206887 C-93.67886764 710.51948888 -91.56322588 712.63551974 -89.41155541 714.75816262 C-86.64595133 717.48645669 -83.9986851 720.24333096 -81.47405541 723.19566262 C-78.75536293 726.36852182 -75.88403866 729.32154643 -72.91155541 732.25816262 C-69.34755239 735.77922585 -66.00851373 739.39002269 -62.75530541 743.19566262 C-60.56359228 745.64740951 -58.25088437 747.94701835 -55.91155541 750.25816262 C-52.34755239 753.77922585 -49.00851373 757.39002269 -45.75530541 761.19566262 C-42.75805312 764.54852111 -39.51995907 767.65710018 -36.32171166 770.81675637 C-33.64301009 773.53018989 -31.16547423 776.36593284 -28.68889916 779.26206887 C-26.67886764 781.51948888 -24.56322588 783.63551974 -22.41155541 785.75816262 C-19.64595133 788.48645669 -16.9986851 791.24333096 -14.47405541 794.19566262 C-10.89185356 798.38330703 -6.99116636 802.21266158 -3.04827416 806.05894387 C-0.91155541 808.25816262 -0.91155541 808.25816262 1.08844459 811.25816262 C4.74309445 809.72423474 7.03238459 807.53188481 9.79156959 804.71519387 C11.13928443 803.35104348 11.13928443 803.35104348 12.51422584 801.95933449 C13.4560139 800.9968173 14.39741814 800.03392443 15.33844459 799.07066262 C17.17450776 797.19973749 19.01301054 795.33120307 20.85406959 793.46519387 C21.66650123 792.63479592 22.47893287 791.80439797 23.31598365 790.94883645 C25.4198434 788.90704019 27.53382027 786.99400336 29.75543678 785.08897316 C34.45637904 781.01117057 38.8294203 776.63123662 43.2087754 772.2129966 C44.68776368 770.72102019 46.17004961 769.23238708 47.65314186 767.74449074 C50.80109708 764.58521497 53.94507729 761.42200239 57.08844459 758.25816262 C60.73659242 754.58625473 64.38643803 750.91606704 68.04056251 747.25010598 C69.48709528 745.79718354 70.93053626 744.34123981 72.37384498 742.88511574 C76.79683885 738.4457891 81.27092027 734.17551681 86.02570045 730.09605324 C89.91224154 726.63317227 93.54539662 722.90890305 97.2087754 719.2129966 C98.68776368 717.72102019 100.17004961 716.23238708 101.65314186 714.74449074 C104.80109708 711.58521497 107.94507729 708.42200239 111.08844459 705.25816262 C114.73659242 701.58625473 118.38643803 697.91606704 122.04056251 694.25010598 C123.48709528 692.79718354 124.93053626 691.34123981 126.37384498 689.88511574 C130.15576206 686.08923319 133.92236527 682.33320342 137.99542701 678.84898293 C143.67115847 673.97873483 148.8672596 668.6025461 154.13922584 663.30503762 C155.28623753 662.15615627 156.43347359 661.0074989 157.58092201 659.85905373 C160.57888325 656.85730355 163.57382941 653.85256311 166.56811988 650.84715188 C169.62059184 647.78441319 172.67592666 644.72453337 175.73102272 641.66441262 C181.09206755 636.29383504 186.45063401 630.9207957 191.80739295 625.54594338 C193.56627676 623.78187085 195.32623005 622.01890633 197.08844459 620.25816262 C196.13727325 619.08564952 195.1772745 617.92029247 194.21344459 616.75816262 C193.67977272 616.10847512 193.14610084 615.45878762 192.59625709 614.78941262 C192.09867897 614.28410012 191.60110084 613.77878762 191.08844459 613.25816262 C190.42844459 613.25816262 189.76844459 613.25816262 189.08844459 613.25816262 C188.69338722 612.37306008 188.69338722 612.37306008 188.29034889 611.47007668 C187.03642807 609.16243446 185.73649198 607.69088868 183.85797584 605.86753762 C183.22343482 605.24459816 182.58889381 604.62165871 181.93512428 603.97984231 C181.26384498 603.32918801 180.59256568 602.67853371 179.90094459 602.00816262 C175.35778621 597.54189831 170.93276983 593.08390904 166.82281959 588.21128762 C164.06849079 585.10956599 161.08590058 582.23550503 158.13434303 579.32359231 C154.90796507 576.12382365 151.90891419 572.80717503 148.96344459 569.35191262 C146.15244148 566.21295914 143.13576662 563.28465581 140.13751686 560.32676613 C136.88843852 557.10449814 133.86400596 553.76475616 130.89703834 550.28550637 C128.71885967 547.84387628 126.41596451 545.5576823 124.08844459 543.25816262 C121.15726268 540.36224304 118.32441285 537.4557369 115.65094459 534.32066262 C112.78672124 530.96891188 109.72510743 527.85259505 106.58844459 524.75816262 C102.84814121 521.06821674 99.30605109 517.28312564 95.89703834 513.28550637 C93.71885967 510.84387628 91.41596451 508.5576823 89.08844459 506.25816262 C86.15726268 503.36224304 83.32441285 500.4557369 80.65094459 497.32066262 C77.78672124 493.96891188 74.72510743 490.85259505 71.58844459 487.75816262 C67.84814121 484.06821674 64.30605109 480.28312564 60.89703834 476.28550637 C57.91316455 472.94073208 54.68224727 469.84481104 51.49469459 466.69566262 C48.83884706 464.00532356 46.38709027 461.19242737 43.93219459 458.32066262 C41.74048146 455.86891573 39.42777355 453.56930689 37.08844459 451.25816262 C34.15726268 448.36224304 31.32441285 445.4557369 28.65094459 442.32066262 C24.10209825 437.00467117 19.06494658 432.16860484 14.08844459 427.25816262 C12.42109084 425.59218331 10.75432709 423.92561309 9.08844459 422.25816262 Z M209.08844459 633.25816262 C209.09590202 635.66862389 209.10335945 638.07908516 209.11104286 640.56259072 C209.17699874 663.26689525 209.19320176 685.97084608 209.16360271 708.67523015 C209.14958084 720.34814594 209.15231723 732.02060666 209.19464576 743.69346535 C209.23150129 753.86881167 209.23677027 764.043603 209.204274 774.21897286 C209.18816899 779.60588452 209.18776956 784.99175534 209.22521102 790.37858307 C209.25997774 795.45244345 209.25240539 800.52450534 209.21281517 805.59831345 C209.20569091 807.4570431 209.21383588 809.31590602 209.23866928 811.17448342 C209.41347934 825.21729256 209.41347934 825.21729256 206.12039459 830.28942978 C203.8904768 832.53123991 201.62123577 834.37594739 199.08844459 836.25816262 C198.01236031 837.43594932 196.96341833 838.64010533 195.96344459 839.88316262 C192.38878769 844.06198688 188.49285632 847.89153857 184.58844459 851.75816262 C178.91343832 857.34360373 178.91343832 857.34360373 173.58844459 863.25816262 C169.55042899 868.05330614 165.007194 872.36267041 160.55719459 876.76988137 C157.45839011 879.85024058 154.40514687 882.91332866 151.58844459 886.25816262 C147.5913004 891.00477135 143.1072115 895.28837889 138.68024147 899.62925637 C135.53341981 902.73342038 132.50508468 905.87698127 129.61969459 909.22691262 C125.35704546 914.17043484 120.70644291 918.69031752 116.04938209 923.25816262 C112.79214481 926.47767128 109.63673653 929.72141163 106.65094459 933.19566262 C101.98757714 938.60982165 96.85217885 943.54079974 91.76031959 948.54722512 C88.24713059 952.02456525 84.81119195 955.50819161 81.58844459 959.25816262 C76.95042447 964.65493719 71.83091557 969.56170626 66.76031959 974.54722512 C63.24713059 978.02456525 59.81119195 981.50819161 56.58844459 985.25816262 C51.95042447 990.65493719 46.83091557 995.56170626 41.76031959 1000.54722512 C38.20905214 1004.06225514 34.75970488 1007.58036372 31.52985084 1011.39488137 C29.21082384 1014.1076675 26.82251839 1016.40215963 24.05328834 1018.65269387 C16.61368914 1024.52397027 16.61368914 1024.52397027 12.57281959 1032.74986184 C12.36928009 1039.51882241 13.29888146 1046.57381792 17.08844459 1052.25816262 C17.66811988 1051.67848732 18.24779518 1051.09881203 18.84503639 1050.50157082 C24.92617246 1044.42043475 31.00730852 1038.33929869 37.08844459 1032.25816262 C38.16702735 1031.14864235 38.16702735 1031.14864235 39.26739967 1030.01670754 C41.67388557 1027.66353712 44.12986146 1025.42887396 46.64655006 1023.1961509 C52.135048 1018.28225602 57.34518348 1013.11737853 62.53141105 1007.89036095 C64.20377403 1006.20498284 65.87946121 1004.52296942 67.55594337 1002.84168923 C71.11130634 999.27502446 74.66267861 995.70440313 78.21344459 992.13316262 C82.34152493 987.98133037 86.4713069 983.83121924 90.60534751 979.68532097 C92.2424467 978.041822 93.87646481 976.39530373 95.51035011 974.74861062 C100.21549724 970.02052464 104.96438014 965.42223232 110.03583229 961.08369362 C114.6142464 957.01179125 118.87409353 952.59306963 123.19391334 948.25035012 C124.24645224 947.19594051 125.29921631 946.14175563 126.35219276 945.08778298 C129.1027905 942.33339887 131.85037369 939.57602732 134.59729469 936.81797707 C137.38874728 934.01627335 140.18304614 931.21741157 142.97711647 928.41831887 C147.8932507 923.49266137 152.80691104 918.56454812 157.71873939 913.63459694 C159.40526245 911.94328476 161.09343757 910.25361928 162.78273475 908.5650779 C164.13645171 907.21065321 165.48627791 905.85228323 166.82672584 904.48472512 C173.08088911 898.12192874 179.6807374 892.50884227 186.87164772 887.22300637 C225.9641962 858.45135946 225.9641962 858.45135946 247.10065162 816.63120949 C250.534236 793.20736453 247.98742648 768.82049299 245.79050148 745.3813163 C244.31428745 729.62173569 243.65921033 714.0119362 243.61578834 698.18394387 C243.61236993 697.10078518 243.60895153 696.0176265 243.60542953 694.90164483 C243.59206306 689.5953652 243.59100908 684.28918447 243.59573829 678.98289406 C243.59615925 669.2416115 243.4456294 659.50216571 243.30719459 649.76206887 C243.23500709 644.31577981 243.16281959 638.86949074 243.08844459 633.25816262 C231.86844459 633.25816262 220.64844459 633.25816262 209.08844459 633.25816262 Z M309.08844459 633.25816262 C309.1114463 635.65307961 309.13444801 638.0479966 309.15814674 640.51548684 C309.36751378 663.11444793 309.48759235 685.71263789 309.52628791 708.31254494 C309.54830969 719.93088218 309.59999544 731.54764318 309.72272193 743.16538918 C309.82967662 753.29736666 309.87974422 763.42779826 309.86289346 773.5603534 C309.8559285 778.92109324 309.8764978 784.27839324 309.96532142 789.63847268 C310.54796679 826.66041154 310.54796679 826.66041154 302.58172309 835.56529152 C299.91893405 837.95255563 297.15977445 839.93304079 294.1257447 841.81900704 C291.12650985 843.93767652 288.94252807 846.5904753 286.61784828 849.40990365 C284.31441847 852.19356034 281.75643316 854.69638073 279.18219459 857.22691262 C278.65379982 857.75152077 278.12540504 858.27612893 277.5809983 858.8166343 C275.36224875 861.01932377 273.13745686 863.21587099 270.91315162 865.41294777 C265.4129671 870.85182194 259.97861848 876.27477482 254.95758522 882.16636574 C250.07064029 887.63545458 244.70403527 892.68884092 239.48590553 897.84019387 C232.3313493 904.85425455 232.3313493 904.85425455 225.58844459 912.25816262 C220.28040991 918.47871658 214.30127787 924.09924128 208.48590553 929.84019387 C201.3313493 936.85425455 201.3313493 936.85425455 194.58844459 944.25816262 C189.28040991 950.47871658 183.30127787 956.09924128 177.48590553 961.84019387 C170.3313493 968.85425455 170.3313493 968.85425455 163.58844459 976.25816262 C158.28040991 982.47871658 152.30127787 988.09924128 146.48590553 993.84019387 C139.41824237 1000.7547691 139.41824237 1000.7547691 132.77594459 1008.07066262 C126.36718462 1015.58117067 119.06037791 1022.33623437 112.04938209 1029.27671731 C103.5682374 1037.53110238 103.5682374 1037.53110238 95.58844459 1046.25816262 C89.26844039 1053.72286146 81.99427137 1060.40167605 75.04938209 1067.27671731 C66.5682374 1075.53110238 66.5682374 1075.53110238 58.58844459 1084.25816262 C52.26844039 1091.72286146 44.99427137 1098.40167605 38.04938209 1105.27671731 C28.41379878 1114.72408553 28.41379878 1114.72408553 19.38531959 1124.74253762 C18.08844459 1126.25816262 18.08844459 1126.25816262 16.43610084 1127.75035012 C14.50301155 1129.91316886 14.75068744 1131.92330364 14.85016334 1134.71910012 C15.33966287 1139.93507869 16.20713171 1145.09618718 17.08844459 1150.25816262 C20.2135685 1150.58139605 20.2135685 1150.58139605 22.40746009 1148.29318154 C23.31820793 1147.37275567 24.22895576 1146.45232979 25.16730201 1145.50401223 C25.67182899 1144.99831704 26.17635597 1144.49262185 26.69617164 1143.97160256 C28.36914299 1142.29142225 30.03134047 1140.60097155 31.69391334 1138.91050637 C32.85800338 1137.73827697 34.02283484 1136.56678342 35.1883744 1135.39599526 C38.26437409 1132.30284141 41.33172091 1129.20125258 44.39691627 1126.09739602 C49.28288063 1121.15239253 54.18127122 1116.21971042 59.08059585 1111.28794968 C60.78266859 1109.57204565 62.48078303 1107.85230264 64.17833412 1106.13192666 C65.2396682 1105.06055082 66.30109061 1103.98926248 67.36261451 1102.91807473 C68.27734031 1101.9920797 69.19206611 1101.06608468 70.13451087 1100.11202919 C72.21267437 1098.05822289 74.37026268 1096.14466783 76.59425819 1094.25036538 C82.94844023 1088.73745649 88.78861284 1082.68021257 94.72125709 1076.72300637 C96.08852623 1075.35381542 97.45602518 1073.98485392 98.82373512 1072.61610329 C101.7563276 1069.68036223 104.68736218 1066.74307784 107.61719215 1063.80457985 C112.2547451 1059.15344782 116.89616053 1054.50618301 121.53815162 1049.85948098 C131.39121832 1039.99533747 141.24005086 1030.12697131 151.08844459 1020.25816262 C161.72233893 1009.60222503 172.35696383 998.94702277 182.99648559 988.29670346 C187.60615004 983.68207146 192.21336848 979.06501564 196.81869972 974.44605935 C199.68879418 971.56847991 202.56098197 968.6929968 205.4337281 965.81806481 C206.76001275 964.48991595 208.08543663 963.16090685 209.40990913 961.83095086 C215.79757412 955.41768542 222.18076242 949.11563061 229.08844459 943.25816262 C244.57248303 929.7406039 259.77390373 915.94737204 274.72790992 901.84580243 C281.51593087 895.45494995 288.35721369 889.15817673 295.39459693 883.04209816 C331.90025111 852.09012154 331.90025111 852.09012154 347.66461647 808.72837746 C348.62016161 792.56580533 347.08323687 776.36444465 345.30161417 760.30886954 C344.22207278 750.55100029 343.73869924 740.93349161 343.77203834 731.11778176 C343.77393417 730.44507331 343.77583 729.77236487 343.77778327 729.07927132 C343.79046253 725.76816751 343.81518201 722.45730657 343.84534156 719.1463176 C343.88491161 712.87942032 343.80606958 706.61442848 343.73297584 700.34800637 C343.7086284 697.92857698 343.68470172 695.50914332 343.6611985 693.08970559 C343.64921424 691.89037392 343.63722999 690.69104226 343.62488258 689.45536721 C343.56172667 683.04721093 343.50307875 676.63901301 343.44391334 670.23081887 C343.32953048 657.90655781 343.21026098 645.58235244 343.08844459 633.25816262 C331.86844459 633.25816262 320.64844459 633.25816262 309.08844459 633.25816262 Z M-403.60296166 636.91441262 C-404.54719994 637.04976418 -405.49143822 637.18511574 -406.46428978 637.32456887 C-407.45751244 637.46765481 -408.4507351 637.61074074 -409.47405541 637.75816262 C-410.47114525 637.90124856 -411.4682351 638.04433449 -412.49553978 638.19175637 C-414.96763516 638.54660259 -417.4396181 638.90221743 -419.91155541 639.25816262 C-416.02566578 643.91401449 -411.98585439 648.31304473 -407.66546166 652.56675637 C-407.09125985 653.13717156 -406.51705803 653.70758675 -405.92545617 654.29528725 C-403.50270095 656.70191477 -401.07397003 659.10247691 -398.64568627 661.50352395 C-396.85847287 663.27245876 -395.07442156 665.04454137 -393.29046166 666.81675637 C-392.75482094 667.34409874 -392.21918023 667.87144112 -391.66730797 668.41476357 C-388.81191137 671.25204488 -386.09606051 674.15916264 -383.46404564 677.20567238 C-380.03920391 681.16256503 -376.41675343 684.86530757 -372.69280541 688.53941262 C-372.03123436 689.19719704 -371.36966332 689.85498147 -370.68804467 690.53269875 C-368.59832806 692.61033536 -366.50538226 694.68466888 -364.41155541 696.75816262 C-361.64813841 699.49474412 -358.88821819 702.23478525 -356.13030541 704.97691262 C-355.51030663 705.58861306 -354.89030785 706.2003135 -354.25152123 706.83055031 C-350.54797856 710.51361901 -347.0775392 714.32996756 -343.66338646 718.28147805 C-340.80792538 721.50344734 -337.75640122 724.51682134 -334.69280541 727.53941262 C-334.03123436 728.19719704 -333.36966332 728.85498147 -332.68804467 729.53269875 C-330.59832806 731.61033536 -328.50538226 733.68466888 -326.41155541 735.75816262 C-323.64813841 738.49474412 -320.88821819 741.23478525 -318.13030541 743.97691262 C-317.51030663 744.58861306 -316.89030785 745.2003135 -316.25152123 745.83055031 C-312.54797856 749.51361901 -309.0775392 753.32996756 -305.66338646 757.28147805 C-302.80792538 760.50344734 -299.75640122 763.51682134 -296.69280541 766.53941262 C-296.03123436 767.19719704 -295.36966332 767.85498147 -294.68804467 768.53269875 C-292.59832806 770.61033536 -290.50538226 772.68466888 -288.41155541 774.75816262 C-285.64813841 777.49474412 -282.88821819 780.23478525 -280.13030541 782.97691262 C-279.20030724 783.89446328 -279.20030724 783.89446328 -278.25152123 784.83055031 C-274.54797856 788.51361901 -271.0775392 792.32996756 -267.66338646 796.28147805 C-264.80792538 799.50344734 -261.75640122 802.51682134 -258.69280541 805.53941262 C-258.03123436 806.19719704 -257.36966332 806.85498147 -256.68804467 807.53269875 C-254.59832806 809.61033536 -252.50538226 811.68466888 -250.41155541 813.75816262 C-247.64813841 816.49474412 -244.88821819 819.23478525 -242.13030541 821.97691262 C-241.20030724 822.89446328 -241.20030724 822.89446328 -240.25152123 823.83055031 C-236.5428765 827.51869286 -233.06646689 831.34011159 -229.64766991 835.2971946 C-226.88026964 838.42301575 -223.92628196 841.34759705 -220.95452416 844.27769387 C-220.32548684 844.90294457 -219.69644951 845.52819527 -219.04835045 846.17239296 C-217.06770223 848.14097054 -215.08380579 850.10622154 -213.09905541 852.07066262 C-210.46466251 854.67845508 -207.83361163 857.28955401 -205.20452416 859.90269387 C-204.30143769 860.79333283 -204.30143769 860.79333283 -203.38010705 861.7019645 C-200.94329449 864.12434802 -198.82382603 866.38975668 -196.91155541 869.25816262 C-194.29285665 869.53402868 -191.91371696 869.61606649 -189.29558861 869.56651223 C-188.51406363 869.5634891 -187.73253865 869.56046597 -186.92733109 869.55735123 C-184.33451024 869.54364292 -181.74244496 869.50841157 -179.14983666 869.47300637 C-177.32874506 869.45881721 -175.50764323 869.44588991 -173.68653405 869.43417275 C-168.99521893 869.40018243 -164.30429892 869.34808036 -159.6132232 869.29029 C-156.28927857 869.2507627 -152.96529321 869.21987898 -149.64125168 869.18983471 C-140.27937918 869.10476859 -130.91813763 868.98375263 -121.55678856 868.85430443 C-117.31960103 868.79630518 -113.0823729 868.74141993 -108.84514916 868.68614113 C-100.89556773 868.58198986 -92.94602395 868.47521965 -84.99649155 868.36739743 C-75.91474896 868.24435455 -66.83296629 868.1244004 -57.75117981 868.00464737 C-39.13792615 867.75914562 -20.52473061 867.50954746 -1.91155541 867.25816262 C-1.91155541 855.70816262 -1.91155541 844.15816262 -1.91155541 832.25816262 C-10.54783104 832.38384621 -10.54783104 832.38384621 -19.35857689 832.51206887 C-38.41289513 832.77756275 -57.46728771 832.95488345 -76.52297413 833.08715737 C-88.07314173 833.16947257 -99.62155048 833.28157873 -111.17058861 833.46519387 C-121.24330184 833.62526021 -131.31474085 833.72803033 -141.38869065 833.76357853 C-146.71784353 833.7843434 -152.04335312 833.83271146 -157.37133133 833.94984353 C-194.14550611 834.72752482 -194.14550611 834.72752482 -203.68888485 826.69162667 C-206.27778314 824.01730422 -208.50575569 821.26579372 -210.57715142 818.17542374 C-212.55442518 815.33449241 -214.92259544 813.14649416 -217.44671166 810.78550637 C-218.95862993 809.25832904 -220.46788774 807.72851173 -221.97405541 806.19566262 C-228.20308298 799.85580127 -228.20308298 799.85580127 -234.78264916 793.88706887 C-240.62645416 788.86415696 -245.9420178 783.28436936 -251.34807885 777.80113137 C-257.94779153 771.08768135 -257.94779153 771.08768135 -264.91155541 764.75816262 C-270.72042149 759.78927514 -275.98538756 754.24038045 -281.34807885 748.80113137 C-287.94779153 742.08768135 -287.94779153 742.08768135 -294.91155541 735.75816262 C-300.72042149 730.78927514 -305.98538756 725.24038045 -311.34807885 719.80113137 C-317.94779153 713.08768135 -317.94779153 713.08768135 -324.91155541 706.75816262 C-330.72042149 701.78927514 -335.98538756 696.24038045 -341.34807885 690.80113137 C-347.94779153 684.08768135 -347.94779153 684.08768135 -354.91155541 677.75816262 C-360.72042149 672.78927514 -365.98538756 667.24038045 -371.34807885 661.80113137 C-376.48429021 656.59830702 -381.64529048 651.49638438 -387.20501244 646.74204934 C-389.53755636 644.71383733 -391.69470828 642.53558893 -393.84905541 640.32066262 C-395.18476919 638.94829116 -396.53347978 637.58799053 -397.91155541 636.25816262 C-399.82075582 636.25816262 -401.71727251 636.64341537 -403.60296166 636.91441262 Z M-509.72405541 639.75816262 C-510.51231713 639.90124856 -511.30057885 640.04433449 -512.11272728 640.19175637 C-514.04638225 640.54333 -515.97907002 640.90021604 -517.91155541 641.25816262 C-513.17402957 646.9621228 -508.08927404 652.19612008 -502.82171166 657.41050637 C-501.52758606 658.69895203 -501.52758606 658.69895203 -500.20731652 660.0134269 C-496.54195998 663.66254369 -492.87067333 667.30567287 -489.19988549 670.94932473 C-486.5092416 673.62179666 -483.8216693 676.29733094 -481.13421166 678.97300637 C-480.31421181 679.78470788 -479.49421196 680.59640938 -478.64936364 681.43270791 C-475.18927687 684.87815909 -471.79845809 688.3263381 -468.62810814 692.04160988 C-464.03813041 697.37470764 -459.00426979 702.276294 -454.01443017 707.23045266 C-452.18643362 709.04551828 -450.36172585 710.86383563 -448.53777611 712.68296731 C-444.66519119 716.54420447 -440.78867807 720.40148257 -436.91155541 724.25816262 C-432.41360937 728.73239267 -427.91735194 733.20829331 -423.42531884 737.68846047 C-421.63999996 739.46736517 -419.85166402 741.24319657 -418.06316674 743.01890481 C-413.13793445 747.92216335 -408.32150439 752.8492767 -403.80681908 758.13804543 C-399.74055946 762.68672488 -395.34293232 766.93290243 -391.01443017 771.23045266 C-389.18643362 773.04551828 -387.36172585 774.86383563 -385.53777611 776.68296731 C-381.66519119 780.54420447 -377.78867807 784.40148257 -373.91155541 788.25816262 C-369.41360937 792.73239267 -364.91735194 797.20829331 -360.42531884 801.68846047 C-358.63999996 803.46736517 -356.85166402 805.24319657 -355.06316674 807.01890481 C-350.13793445 811.92216335 -345.32150439 816.8492767 -340.80681908 822.13804543 C-336.74055946 826.68672488 -332.34293232 830.93290243 -328.01443017 835.23045266 C-326.18643362 837.04551828 -324.36172585 838.86383563 -322.53777611 840.68296731 C-318.66519119 844.54420447 -314.78867807 848.40148257 -310.91155541 852.25816262 C-306.41360937 856.73239267 -301.91735194 861.20829331 -297.42531884 865.68846047 C-295.63999996 867.46736517 -293.85166402 869.24319657 -292.06316674 871.01890481 C-283.07285055 879.96910975 -283.07285055 879.96910975 -279.42522728 884.24449074 C-274.86338002 889.58838879 -269.81139121 894.46846192 -264.82923424 899.41564858 C-262.96763509 901.26432137 -261.10932037 903.11624223 -259.25176537 904.96897805 C-255.30784976 908.90154372 -251.36000665 912.83015161 -247.41155541 916.75816262 C-242.83100512 921.31500045 -238.25214092 925.87350669 -233.67750084 930.43627846 C-231.8589425 932.24842066 -230.03736745 934.05749105 -228.21563256 935.86643898 C-213.76085905 950.25488465 -213.76085905 950.25488465 -209.20452416 957.53941262 C-205.60998192 962.76864554 -201.69151861 966.51504993 -195.91155541 969.25816262 C-189.79529797 970.21447803 -183.81135786 969.976094 -177.64202416 969.75425637 C-175.79650754 969.71691388 -173.95090631 969.68357376 -172.10525048 969.65389931 C-168.13067782 969.58576818 -164.157191 969.49796734 -160.18331444 969.39726174 C-153.81216412 969.24438748 -147.44227739 969.18685281 -141.06951439 969.15122902 C-139.98358781 969.14505499 -138.89766123 969.13888096 -137.77882779 969.13251984 C-135.55554826 969.12005916 -133.33226797 969.10773307 -131.10898697 969.09553826 C-125.39853089 969.06008058 -119.68826523 969.00578604 -113.97796166 968.95152199 C-111.65781206 968.92961609 -109.33766232 968.90772485 -107.01751244 968.88584816 C-105.86585595 968.8749717 -104.71419945 968.86409523 -103.52764428 968.85288918 C-100.04055446 968.82069953 -96.55345348 968.79042379 -93.06634057 968.76084816 C-62.67366352 968.50286775 -32.29539206 968.04105313 -1.91155541 967.25816262 C-1.91155541 956.03816262 -1.91155541 944.81816262 -1.91155541 933.25816262 C-4.31170922 933.26117882 -6.71186303 933.26419503 -9.18474877 933.26730263 C-31.78635931 933.29237802 -54.38771081 933.27883654 -76.98928368 933.22969639 C-88.60945192 933.20536107 -100.22935941 933.1940574 -111.84954369 933.21348488 C-121.97832909 933.23038581 -132.10674977 933.22278201 -142.2354871 933.18581504 C-147.59816517 933.16709691 -152.96022645 933.16060756 -158.32290184 933.18346894 C-163.37274891 933.20460939 -168.42146702 933.19293224 -173.47121537 933.15631783 C-175.32228561 933.1486379 -177.17345019 933.15284539 -179.0244571 933.16997635 C-194.7528799 933.30436542 -194.7528799 933.30436542 -199.84319603 928.92907631 C-200.90077277 927.73537899 -201.92546478 926.51156084 -202.91155541 925.25816262 C-204.13870544 924.03849295 -205.37710284 922.82995386 -206.63030541 921.63706887 C-207.8931947 920.36738807 -209.1535312 919.095164 -210.41155541 917.82066262 C-211.43152611 916.79501198 -211.43152611 916.79501198 -212.47210228 915.74864113 C-215.34380684 912.86078488 -218.20943979 909.96693186 -221.07561791 907.07359231 C-223.18548328 904.94550537 -225.29845186 902.82053345 -227.41155541 900.69566262 C-228.04512963 900.05379006 -228.67870385 899.4119175 -229.33147728 898.75059426 C-232.38801377 895.67762047 -235.48728674 892.72039502 -238.77483666 889.89488137 C-243.62020858 885.70949665 -248.09565649 881.18040784 -252.59905541 876.63316262 C-253.50099633 875.72743508 -254.40293725 874.82170754 -255.33220971 873.88853371 C-258.67760985 870.52894956 -262.01843933 867.16484999 -265.3589431 863.80039895 C-268.64447341 860.49181911 -271.93389331 857.18713781 -275.22405541 853.88316262 C-276.07636742 853.02255227 -276.92867943 852.16194191 -277.80681908 851.27525246 C-282.03758571 847.02732672 -286.33985149 842.96692203 -290.88518822 839.05967629 C-294.88786195 835.50115467 -298.61345358 831.65640556 -302.38030541 827.85191262 C-303.26005028 826.96838112 -304.13979516 826.08484963 -305.04619896 825.17454445 C-308.30812486 821.89843942 -311.56548105 818.61781282 -314.82250512 815.33683693 C-318.02642801 812.10985724 -321.23424657 808.88678182 -324.44280541 805.66441262 C-325.27324364 804.82567605 -326.10368187 803.98693947 -326.9592849 803.12278664 C-330.51385887 799.55343274 -334.07699775 796.05633035 -337.89788353 792.77183449 C-342.7082054 788.63466501 -347.1366011 784.13906458 -351.59905541 779.63316262 C-352.95196679 778.27457131 -352.95196679 778.27457131 -354.33220971 776.88853371 C-357.67760985 773.52894956 -361.01843933 770.16484999 -364.3589431 766.80039895 C-367.64447341 763.49181911 -370.93389331 760.18713781 -374.22405541 756.88316262 C-375.07636742 756.02255227 -375.92867943 755.16194191 -376.80681908 754.27525246 C-381.03758571 750.02732672 -385.33985149 745.96692203 -389.88518822 742.05967629 C-393.88786195 738.50115467 -397.61345358 734.65640556 -401.38030541 730.85191262 C-402.69992272 729.52661538 -402.69992272 729.52661538 -404.04619896 728.17454445 C-407.30812486 724.89843942 -410.56548105 721.61781282 -413.82250512 718.33683693 C-417.02642801 715.10985724 -420.23424657 711.88678182 -423.44280541 708.66441262 C-424.27324364 707.82567605 -425.10368187 706.98693947 -425.9592849 706.12278664 C-429.51385887 702.55343274 -433.07699775 699.05633035 -436.89788353 695.77183449 C-441.7082054 691.63466501 -446.1366011 687.13906458 -450.59905541 682.63316262 C-451.50099633 681.72743508 -452.40293725 680.82170754 -453.33220971 679.88853371 C-456.67760985 676.52894956 -460.01843933 673.16484999 -463.3589431 669.80039895 C-466.64447341 666.49181911 -469.93389331 663.18713781 -473.22405541 659.88316262 C-474.07636742 659.02255227 -474.92867943 658.16194191 -475.80681908 657.27525246 C-480.14737237 652.91709479 -484.546253 648.71555443 -489.23968041 644.73789895 C-490.91155541 643.25816262 -490.91155541 643.25816262 -493.59905541 640.32066262 C-495.65990569 638.07919307 -495.65990569 638.07919307 -498.00530541 638.03550637 C-501.96764053 638.33907236 -505.81993117 639.03166171 -509.72405541 639.75816262 Z " fill="#CE0F3E" transform="translate(599.9115554094315,-0.25816261768341064)"/>
</svg>
